<svg height="464pt" viewBox="-8 0 464 464" width="464pt" xmlns="http://www.w3.org/2000/svg"><path d="m0 0h240v336h-240zm0 0" fill="#c0ab91"/><path d="m240 64h128v192h-128zm0 0" fill="#e0e0e2"/><path d="m184 240h32v32h-32zm0 0" fill="#ff9811"/><path d="m120 240h32v32h-32zm0 0" fill="#ff9811"/><path d="m88 240v32h-32v-32zm0 0" fill="#ff9811"/><path d="m152 240h32v32h-32zm0 0" fill="#ff5023"/><path d="m88 240h32v32h-32zm0 0" fill="#ff5023"/><path d="m56 240v32h-32v-32zm0 0" fill="#ff5023"/><path d="m328 328h120v40h-120zm0 0" fill="#57565c"/><path d="m336 368h104v96h-104zm0 0" fill="#898890"/><path d="m200 304v144l-16 16-24-24-24 24-24-24-24 24-24-24-24 24v-160zm0 0" fill="#ffeb99"/><path d="m24 24h192v192h-192zm0 0" fill="#bdfdff"/><path d="m216 24h-192v192c0-106.039062 85.960938-192 192-192zm0 0" fill="#dafeff"/><path d="m192 120c0 39.765625-32.234375 72-72 72s-72-32.234375-72-72 32.234375-72 72-72 72 32.234375 72 72zm0 0" fill="#ffda44"/><path d="m328 96c6.671875-.027344 12.652344 4.101562 14.992188 10.351562 2.339843 6.246094.539062 13.289063-4.511719 17.648438 5.046875 4.375 6.84375 11.425781 4.511719 17.683594-2.335938 6.257812-8.3125 10.40625-14.992188 10.40625s-12.65625-4.148438-14.992188-10.40625c-2.332031-6.257813-.535156-13.308594 4.511719-17.683594-5.050781-4.359375-6.851562-11.402344-4.511719-17.648438 2.339844-6.25 8.320313-10.378906 14.992188-10.351562zm0 0" fill="#bdfdff"/><path d="m448 192v80l-24 40v16h-64v-16l-16-16v-24l2.558594-15.601562 5.441406-32.398438-24-32 24-24 16 13.359375v-93.359375h24l16 72zm0 0" fill="#ffdaaa"/><path d="m256 88h16v144h-16zm0 0" fill="#009698"/><path d="m24 296h192v16h-192zm0 0" fill="#57565c"/><g fill="#1a6fb0"><path d="m64 328h32v16h-32zm0 0"/><path d="m112 328h64v16h-64zm0 0"/><path d="m64 360h64v16h-64zm0 0"/><path d="m144 360h32v16h-32zm0 0"/></g><path d="m128 112h-16c-4.417969 0-8-3.582031-8-8s3.582031-8 8-8h16c4.417969 0 8 3.582031 8 8h16c0-13.253906-10.746094-24-24-24v-8h-16v8c-13.253906 0-24 10.746094-24 24s10.746094 24 24 24h16c4.417969 0 8 3.582031 8 8s-3.582031 8-8 8h-16c-4.417969 0-8-3.582031-8-8h-16c0 13.253906 10.746094 24 24 24v8h16v-8c13.253906 0 24-10.746094 24-24s-10.746094-24-24-24zm0 0" fill="#fff"/><path d="m336 368h104v8h-104zm0 0" fill="#787680"/><path d="m344 336h16c4.417969 0 8 3.582031 8 8s-3.582031 8-8 8h-16c-4.417969 0-8-3.582031-8-8s3.582031-8 8-8zm0 0" fill="#787680"/></svg>