<svg id="Layer_3" enable-background="new 0 0 64 64" height="512" viewBox="0 0 64 64" width="512" xmlns="http://www.w3.org/2000/svg"><path d="m8.5 20.5c-.96.96-1.5 2.263-1.5 3.621v5.879h20v-5.879c0-1.358-.54-2.661-1.5-3.621-.96-.96-2.263-1.5-3.621-1.5h-9.757c-1.359 0-2.662.54-3.622 1.5z" fill="#b24e4a"/><path d="m22.5 20.5c-.96-.96-2.263-1.5-3.621-1.5h-6.757c-1.358 0-2.661.54-3.621 1.5s-1.501 2.263-1.501 3.621v5.879h17v-5.879c0-1.358-.54-2.661-1.5-3.621z" fill="#ed6863"/><circle cx="17" cy="9.121" fill="#fdd089" r="7"/><path d="m18.5 8.5c.96.96 2.263 1.5 3.621 1.5h1.818c.036-.288.061-.58.061-.879 0-3.866-3.134-7-7-7v2.757c0 1.359.54 2.662 1.5 3.622z" fill="#c69c6d"/><path d="m15.5 8.5c-.96.96-2.263 1.5-3.621 1.5h-1.818c-.036-.288-.061-.58-.061-.879 0-3.866 3.134-7 7-7v2.757c0 1.359-.54 2.662-1.5 3.622z" fill="#c69c6d"/><path d="m15 15v4l2 2 2-2v-4" fill="#fdd089"/><path d="m38 6h20v14h-20z" fill="#8d9299"/><path d="m38 6h17v14h-17z" fill="#bcc3cc"/><path d="m38 6h20v4h-20z" fill="#8d9299"/><path d="m38 6h17v4h-17z" fill="#bcc3cc"/><path d="m46 20h4v4h-4z" fill="#8d9299"/><path d="m36 24h24v6h-24z" fill="#8d9299"/><path d="m36 24h21v6h-21z" fill="#bcc3cc"/><path d="m4 34h56v24h-56z" fill="#8d9299"/><path d="m4 34h53v24h-53z" fill="#bcc3cc"/><path d="m2 58h60v4h-60z" fill="#47494d"/><path d="m2 58h57v4h-57z" fill="#6a6e73"/><path d="m2 30h60v4h-60z" fill="#47494d"/><path d="m2 30h57v4h-57z" fill="#6a6e73"/><circle cx="20" cy="46" fill="#7ec95f" r="8"/><circle cx="44" cy="46" fill="#7ec95f" r="8"/><path d="m38 9.121h20v2h-20z" fill="#6a6e73"/><g fill="#fff"><path d="m20 22h4v2h-4z"/><path d="m20 51h-3v-2h3c.552 0 1-.448 1-1s-.448-1-1-1c-1.654 0-3-1.346-3-3s1.346-3 3-3h3v2h-3c-.552 0-1 .448-1 1s.448 1 1 1c1.654 0 3 1.346 3 3s-1.346 3-3 3z"/><path d="m21 38.069c-.328-.041-.661-.069-1-.069s-.672.028-1 .069v3.931h2z"/><path d="m19 53.931c.328.041.661.069 1 .069s.672-.028 1-.069v-3.931h-2z"/><path d="m44 51h-3v-2h3c.552 0 1-.448 1-1s-.448-1-1-1c-1.654 0-3-1.346-3-3s1.346-3 3-3h3v2h-3c-.552 0-1 .448-1 1s.448 1 1 1c1.654 0 3 1.346 3 3s-1.346 3-3 3z"/><path d="m45 38.069c-.328-.041-.661-.069-1-.069s-.672.028-1 .069v3.931h2z"/><path d="m43 53.931c.328.041.661.069 1 .069s.672-.028 1-.069v-3.931h-2z"/></g></svg>