<svg height="512" viewBox="0 0 64 64" width="512" xmlns="http://www.w3.org/2000/svg" xmlns:xlink="http://www.w3.org/1999/xlink"><linearGradient id="linear-gradient" gradientUnits="userSpaceOnUse" x1="-21.621" x2="41.599" y1="33.621" y2="-29.599"><stop offset="0" stop-color="#003f8a"/><stop offset=".518" stop-color="#00d7df"/><stop offset="1" stop-color="#006df0"/></linearGradient><linearGradient id="linear-gradient-2" x1="-18.121" x2="45.099" xlink:href="#linear-gradient" y1="37.121" y2="-26.099"/><linearGradient id="linear-gradient-3" x1="-14.121" x2="49.099" xlink:href="#linear-gradient" y1="41.121" y2="-22.099"/><linearGradient id="linear-gradient-4" x1="-10.621" x2="52.599" xlink:href="#linear-gradient" y1="44.621" y2="-18.599"/><linearGradient id="linear-gradient-5" x1="4.379" x2="67.599" xlink:href="#linear-gradient" y1="59.621" y2="-3.599"/><linearGradient id="linear-gradient-7" x1="7.879" x2="71.099" xlink:href="#linear-gradient" y1="63.121" y2="-.099"/><linearGradient id="linear-gradient-8" x1="11.879" x2="75.099" xlink:href="#linear-gradient" y1="67.121" y2="3.901"/><linearGradient id="linear-gradient-9" x1="15.379" x2="78.599" xlink:href="#linear-gradient" y1="70.621" y2="7.401"/><linearGradient id="linear-gradient-10" x1="-3.621" x2="59.599" xlink:href="#linear-gradient" y1="51.621" y2="-11.599"/><linearGradient id="linear-gradient-11" x1="-4.621" x2="58.599" xlink:href="#linear-gradient" y1="50.621" y2="-12.599"/><linearGradient id="linear-gradient-12" x1="30.379" x2="93.599" xlink:href="#linear-gradient" y1="85.621" y2="22.401"/><linearGradient id="linear-gradient-13" x1="26.879" x2="90.099" xlink:href="#linear-gradient" y1="82.121" y2="18.901"/><linearGradient id="linear-gradient-14" x1="22.879" x2="86.099" xlink:href="#linear-gradient" y1="78.121" y2="14.901"/><linearGradient id="linear-gradient-15" x1="19.379" x2="82.599" xlink:href="#linear-gradient" y1="74.621" y2="11.401"/><linearGradient id="linear-gradient-17" x1=".879" x2="64.099" xlink:href="#linear-gradient" y1="56.121" y2="-7.099"/><linearGradient id="linear-gradient-18" x1="-3.121" x2="60.099" xlink:href="#linear-gradient" y1="52.121" y2="-11.099"/><linearGradient id="linear-gradient-19" x1="-6.621" x2="56.599" xlink:href="#linear-gradient" y1="48.621" y2="-14.599"/><linearGradient id="linear-gradient-20" x1="12.379" x2="75.599" xlink:href="#linear-gradient" y1="67.621" y2="4.401"/><linearGradient id="linear-gradient-21" x1="13.379" x2="76.599" xlink:href="#linear-gradient" y1="68.621" y2="5.401"/><circle cx="6" cy="6" fill="url(#linear-gradient)" r="1"/><circle cx="13" cy="6" fill="url(#linear-gradient-2)" r="1"/><circle cx="21" cy="6" fill="url(#linear-gradient-3)" r="1"/><circle cx="28" cy="6" fill="url(#linear-gradient-4)" r="1"/><path d="m62 1h-60a1 1 0 0 0 -1 1v60a1 1 0 0 0 1 1h60a1 1 0 0 0 1-1v-60a1 1 0 0 0 -1-1zm-29 30v-13h28v13zm-2 15h-28v-13h28zm30-30h-28v-13h28zm-30-13v28h-13v-28zm-28 0h13v28h-13zm0 45h28v13h-28zm30 13v-28h13v28zm28 0h-13v-28h13z" fill="url(#linear-gradient-5)"/><circle cx="58" cy="6" fill="url(#linear-gradient-5)" r="1"/><circle cx="58" cy="13" fill="url(#linear-gradient-7)" r="1"/><circle cx="58" cy="21" fill="url(#linear-gradient-8)" r="1"/><circle cx="58" cy="28" fill="url(#linear-gradient-9)" r="1"/><path d="m28 27a1 1 0 0 0 1-1v-12a1 1 0 0 0 -2 0v12a1 1 0 0 0 1 1z" fill="url(#linear-gradient-10)"/><path d="m36 7h8a1 1 0 0 0 0-2h-8a1 1 0 0 0 0 2z" fill="url(#linear-gradient-11)"/><circle cx="58" cy="58" fill="url(#linear-gradient-12)" r="1"/><circle cx="51" cy="58" fill="url(#linear-gradient-13)" r="1"/><circle cx="43" cy="58" fill="url(#linear-gradient-14)" r="1"/><circle cx="36" cy="58" fill="url(#linear-gradient-15)" r="1"/><circle cx="6" cy="58" fill="url(#linear-gradient-5)" r="1"/><circle cx="6" cy="51" fill="url(#linear-gradient-17)" r="1"/><circle cx="6" cy="43" fill="url(#linear-gradient-18)" r="1"/><circle cx="6" cy="36" fill="url(#linear-gradient-19)" r="1"/><path d="m36 37a1 1 0 0 0 -1 1v12a1 1 0 0 0 2 0v-12a1 1 0 0 0 -1-1z" fill="url(#linear-gradient-20)"/><path d="m28 57h-8a1 1 0 0 0 0 2h8a1 1 0 0 0 0-2z" fill="url(#linear-gradient-21)"/></svg>