<svg id="icons" enable-background="new 0 0 64 64" height="512" viewBox="0 0 64 64" width="512" xmlns="http://www.w3.org/2000/svg"><path d="m41 5c-.553 0-1-.447-1-1v-1c0-.553.447-1 1-1s1 .447 1 1v1c0 .553-.447 1-1 1z" fill="#d3374e"/><path d="m25 38v4h-5-5v-4z" fill="#5d9cec"/><path d="m20 46c-.553 0-1-.447-1-1v-3.002c0-.553.447-1 1-1s1 .447 1 1v3.002c0 .553-.447 1-1 1z" fill="#545c66"/><path d="m25.002 42.998h-10.002c-.553 0-1-.447-1-1v-4c0-.553.447-1 1-1h10.002c.553 0 1 .447 1 1v4c0 .553-.447 1-1 1zm-9.002-2h8.002v-2h-8.002z" fill="#656d78"/><path d="m41 8c1.66 0 3 1.34 3 3s-1.34 3-3 3-3-1.34-3-3 1.34-3 3-3z" fill="#ffce54"/><path d="m41 18c-8.18 0-12.71 1.49-15 2.66v-2.66c0-8.281 6.71-15 15-15 8.28 0 15 6.719 15 15v2.66c-2.29-1.17-6.82-2.66-15-2.66zm3-7c0-1.66-1.34-3-3-3s-3 1.34-3 3 1.34 3 3 3 3-1.34 3-3z" fill="#ed5565"/><path d="m41 3c-.507 0-1.008.025-1.502.076 7.576.754 13.499 7.151 13.499 14.924v1.479c1.27.387 2.258.801 3.003 1.182v-2.661c0-8.281-6.72-15-15-15z" fill="#da4453"/><path d="m34 46v-5.73c2.09 1.1 4.47 1.73 7 1.73s4.91-.631 7-1.73v5.73l-4 2-3-1-3 1z" fill="#ffce54"/><path d="m56 20.66c1.45.74 2 1.34 2 1.34h-2-30-2s.54-.6 2-1.34c2.29-1.17 6.82-2.66 15-2.66s12.71 1.49 15 2.66z" fill="#656d78"/><path d="m63 54v7c0 .549-.45 1-1 1h-33v-5.99l-2.96-6.01h-.04v-4h.02 7.98l4 2 3-1 3 1 4-2h7c4.42 0 8 3.58 8 8z" fill="#ed5565"/><path d="m55 46h-3.003c4.42 0 8 3.58 8 8v7c0 .549-.45 1-1 1h3.003c.55 0 1-.451 1-1v-7c0-4.42-3.58-8-8-8z" fill="#da4453"/><path d="m56 22v5c0 5.76-3.24 10.76-8 13.27-2.09 1.1-4.47 1.73-7 1.73s-4.91-.631-7-1.73c-4.76-2.51-8-7.51-8-13.27v-5z" fill="#eac6bb"/><path d="m52.997 22v5c0 5.76-3.24 10.76-8 13.27-1.671.879-3.528 1.451-5.499 1.648.495.049.994.082 1.502.082 2.53 0 4.91-.631 7-1.73 4.76-2.51 8-7.51 8-13.27v-5z" fill="#d3b1a9"/><path d="m11 38v6h-4v-6l1-1 1 1 1-1z" fill="#e6e9ed"/><path d="m26 46v4h-22v-4c0-1.111.89-2 2-2h1 4 9 4c1.11 0 2 .889 2 2z" fill="#5d9cec"/><path d="m1 56.01h28v5.99h-28z" fill="#e6e9ed"/><path d="m26.04 50 2.96 6.01h-28l3-6.01h22z" fill="#ccd1d9"/><path d="m41.03 52.998c-.553 0-1.005-.447-1.005-1s.442-1 .994-1h.011c.552 0 1 .447 1 1s-.448 1-1 1z" fill="#da4453"/><g fill="#aab2bd"><path d="m7.032 55c-.553 0-1.005-.447-1.005-1s.442-1 .994-1h.011c.552 0 1 .447 1 1s-.448 1-1 1z"/><path d="m11.032 55c-.553 0-1.005-.447-1.005-1s.442-1 .994-1h.011c.552 0 1 .447 1 1s-.448 1-1 1z"/><path d="m15.032 55c-.553 0-1.005-.447-1.005-1s.442-1 .994-1h.011c.552 0 1 .447 1 1s-.448 1-1 1z"/><path d="m23 55h-4c-.553 0-1-.447-1-1s.447-1 1-1h4c.553 0 1 .447 1 1s-.447 1-1 1z"/></g><path d="m7.032 54c-.553 0-1.005-.447-1.005-1s.442-1 .994-1h.011c.552 0 1 .447 1 1s-.448 1-1 1z" fill="#e6e9ed"/><path d="m11.032 54c-.553 0-1.005-.447-1.005-1s.442-1 .994-1h.011c.552 0 1 .447 1 1s-.448 1-1 1z" fill="#e6e9ed"/><path d="m15.032 54c-.553 0-1.005-.447-1.005-1s.442-1 .994-1h.011c.552 0 1 .447 1 1s-.448 1-1 1z" fill="#e6e9ed"/><path d="m15.032 60.125c-.553 0-1.005-.447-1.005-1s.442-1 .994-1h.011c.552 0 1 .447 1 1s-.448 1-1 1z" fill="#ccd1d9"/><path d="m15.004 47.998h-8.004c-.553 0-1-.447-1-1s.447-1 1-1h8.004c.553 0 1 .447 1 1s-.447 1-1 1z" fill="#4a89dc"/><path d="m23 47.998h-3.979c-.553 0-1-.447-1-1s.447-1 1-1h3.979c.553 0 1 .447 1 1s-.447 1-1 1z" fill="#4a89dc"/><path d="m23 54h-4c-.553 0-1-.447-1-1s.447-1 1-1h4c.553 0 1 .447 1 1s-.447 1-1 1z" fill="#e6e9ed"/></svg>