<svg id="Icon_Set" enable-background="new 0 0 64 64" height="512" viewBox="0 0 64 64" width="512" xmlns="http://www.w3.org/2000/svg"><path d="m20.5 5h20v28h-20z" fill="#c2c2c2"/><path d="m40.5 33.5h-20c-.276 0-.5-.224-.5-.5v-28c0-.276.224-.5.5-.5h20c.276 0 .5.224.5.5v28c0 .276-.224.5-.5.5zm-19.5-1h19v-27h-19z" fill="#212a41"/><path d="m23.5 5h20v28h-20z" fill="#e0e0e0"/><g fill="#212a41"><path d="m43.5 33.5h-20c-.276 0-.5-.224-.5-.5v-28c0-.276.224-.5.5-.5h20c.276 0 .5.224.5.5v28c0 .276-.224.5-.5.5zm-19.5-1h19v-27h-19z"/><path d="m35.5 11.504h-4c-.276 0-.5-.224-.5-.5s.224-.5.5-.5h4c.276 0 .5.224.5.5s-.224.5-.5.5z"/><path d="m39.5 15.504h-12c-.276 0-.5-.224-.5-.5s.224-.5.5-.5h12c.276 0 .5.224.5.5s-.224.5-.5.5z"/><path d="m39.5 19.504h-12c-.276 0-.5-.224-.5-.5s.224-.5.5-.5h12c.276 0 .5.224.5.5s-.224.5-.5.5z"/><path d="m39.5 23.504h-12c-.276 0-.5-.224-.5-.5s.224-.5.5-.5h12c.276 0 .5.224.5.5s-.224.5-.5.5z"/><path d="m31.403 29.504h-4c-.276 0-.5-.224-.5-.5s.224-.5.5-.5h4c.276 0 .5.224.5.5s-.224.5-.5.5z"/></g><path d="m25.5 31.5c-.276 0-.5-.224-.5-.5v-24c0-.276.224-.5.5-.5s.5.224.5.5v24c0 .276-.224.5-.5.5z" fill="#fefefe"/><path d="m41.5 31.5c-.276 0-.5-.224-.5-.5v-24c0-.276.224-.5.5-.5s.5.224.5.5v24c0 .276-.224.5-.5.5z" fill="#c2c2c2"/><path d="m26 59h-22v-8c0-3.314 2.686-6 6-6h10c3.314 0 6 2.686 6 6z" fill="#4e4b51"/><path d="m26 59.5h-22c-.276 0-.5-.224-.5-.5v-8c0-3.584 2.916-6.5 6.5-6.5h10c3.584 0 6.5 2.916 6.5 6.5v8c0 .276-.224.5-.5.5zm-21.5-1h21v-7.5c0-3.033-2.467-5.5-5.5-5.5h-10c-3.033 0-5.5 2.467-5.5 5.5z" fill="#212a41"/><path d="m24 45h-10c-3.314 0-6 2.686-6 6v8h22v-8c0-3.314-2.686-6-6-6z" fill="#6c696f"/><path d="m30 59.5h-22c-.276 0-.5-.224-.5-.5v-8c0-3.584 2.916-6.5 6.5-6.5h10c3.584 0 6.5 2.916 6.5 6.5v8c0 .276-.224.5-.5.5zm-21.5-1h21v-7.5c0-3.033-2.467-5.5-5.5-5.5h-10c-3.033 0-5.5 2.467-5.5 5.5z" fill="#212a41"/><path d="m19 45h-4c-2.209 0-4-1.791-4-4v-6c0-2.209 1.791-4 4-4h4c2.209 0 4 1.791 4 4v6c0 2.209-1.791 4-4 4z" fill="#e0c8a4"/><path d="m19 45.5h-4c-2.481 0-4.5-2.019-4.5-4.5v-6c0-2.481 2.019-4.5 4.5-4.5h4c2.481 0 4.5 2.019 4.5 4.5v6c0 2.481-2.019 4.5-4.5 4.5zm-4-14c-1.93 0-3.5 1.57-3.5 3.5v6c0 1.93 1.57 3.5 3.5 3.5h4c1.93 0 3.5-1.57 3.5-3.5v-6c0-1.93-1.57-3.5-3.5-3.5z" fill="#212a41"/><path d="m15 30v7c0 1.105-.895 2-2 2h-2v-7c0-1.105.895-2 2-2z" fill="#db8e11"/><path d="m13 39.5h-2c-.276 0-.5-.224-.5-.5v-7c0-1.378 1.122-2.5 2.5-2.5h2c.276 0 .5.224.5.5v7c0 1.378-1.122 2.5-2.5 2.5zm-1.5-1h1.5c.827 0 1.5-.673 1.5-1.5v-6.5h-1.5c-.827 0-1.5.673-1.5 1.5z" fill="#212a41"/><path d="m25 29v3c0 2.209-1.791 4-4 4h-7v-5c0-1.105.895-2 2-2z" fill="#f9ac2f"/><path d="m21 36.5h-7c-.276 0-.5-.224-.5-.5v-5c0-1.378 1.122-2.5 2.5-2.5h9c.276 0 .5.224.5.5v3c0 2.481-2.019 4.5-4.5 4.5zm-6.5-1h6.5c1.93 0 3.5-1.57 3.5-3.5v-2.5h-8.5c-.827 0-1.5.673-1.5 1.5z" fill="#212a41"/><path d="m28 57.5c-.276 0-.5-.224-.5-.5v-6c0-.276.224-.5.5-.5s.5.224.5.5v6c0 .276-.224.5-.5.5z" fill="#4e4b51"/><path d="m10 57.5c-.276 0-.5-.224-.5-.5v-6c0-.276.224-.5.5-.5s.5.224.5.5v6c0 .276-.224.5-.5.5z" fill="#8a878d"/><path d="m15 45 4 7 4-7z" fill="#e0e0e0"/><path d="m19 52.5c-.179 0-.345-.096-.434-.252l-4-7c-.088-.155-.088-.345.001-.499.09-.154.255-.249.433-.249h8c.178 0 .343.095.433.249.089.154.09.344.001.499l-4 7c-.089.156-.255.252-.434.252zm-3.138-7 3.138 5.492 3.138-5.492z" fill="#212a41"/><path d="m19 59.5c-.276 0-.5-.224-.5-.5v-7c0-.276.224-.5.5-.5s.5.224.5.5v7c0 .276-.224.5-.5.5z" fill="#212a41"/><path d="m19 52.5c-.009 0-.018 0-.027-.001s-.001 0-.002 0h-.001-.001-.001-.001s0 0-.001 0c-.067-.005-.132-.023-.19-.053l-5.999-2.999c-.247-.124-.347-.424-.224-.671l2-4c.083-.165.249-.271.434-.276.17-.013.356.092.448.252l3.565 6.24 3.566-6.24c.091-.16.263-.262.448-.252.185.005.351.111.434.276l2 4c.124.247.023.547-.224.671l-5.999 2.999c-.059.03-.124.048-.19.053 0 0 0 0-.001 0 0 0 0 0-.001 0 0 0 0 0-.001 0 0 0 0 0-.001 0h-.001c-.001 0-.001 0-.002 0-.01.001-.019.001-.028.001zm3.971-6.441-2.717 4.755 4.076-2.038zm-9.3 2.717 4.076 2.038-2.717-4.755z" fill="#212a41"/><path d="m38 59h22v-8c0-3.314-2.686-6-6-6h-10c-3.314 0-6 2.686-6 6z" fill="#6c696f"/><path d="m60 59.5h-22c-.276 0-.5-.224-.5-.5v-8c0-3.584 2.916-6.5 6.5-6.5h10c3.584 0 6.5 2.916 6.5 6.5v8c0 .276-.224.5-.5.5zm-21.5-1h21v-7.5c0-3.033-2.467-5.5-5.5-5.5h-10c-3.033 0-5.5 2.467-5.5 5.5z" fill="#212a41"/><path d="m40 45h10c3.314 0 6 2.686 6 6v8h-22v-8c0-3.314 2.686-6 6-6z" fill="#4e4b51"/><path d="m56 59.5h-22c-.276 0-.5-.224-.5-.5v-8c0-3.584 2.916-6.5 6.5-6.5h10c3.584 0 6.5 2.916 6.5 6.5v8c0 .276-.224.5-.5.5zm-21.5-1h21v-7.5c0-3.033-2.467-5.5-5.5-5.5h-10c-3.033 0-5.5 2.467-5.5 5.5z" fill="#212a41"/><path d="m45 45h4c2.209 0 4-1.791 4-4v-6c0-2.209-1.791-4-4-4h-4c-2.209 0-4 1.791-4 4v6c0 2.209 1.791 4 4 4z" fill="#e0c8a4"/><path d="m49 45.5h-4c-2.481 0-4.5-2.019-4.5-4.5v-6c0-2.481 2.019-4.5 4.5-4.5h4c2.481 0 4.5 2.019 4.5 4.5v6c0 2.481-2.019 4.5-4.5 4.5zm-4-14c-1.93 0-3.5 1.57-3.5 3.5v6c0 1.93 1.57 3.5 3.5 3.5h4c1.93 0 3.5-1.57 3.5-3.5v-6c0-1.93-1.57-3.5-3.5-3.5z" fill="#212a41"/><path d="m49 30v7c0 1.105.895 2 2 2h2v-7c0-1.105-.895-2-2-2z" fill="#f9ac2f"/><path d="m53 39.5h-2c-1.378 0-2.5-1.122-2.5-2.5v-7c0-.276.224-.5.5-.5h2c1.378 0 2.5 1.122 2.5 2.5v7c0 .276-.224.5-.5.5zm-3.5-9v6.5c0 .827.673 1.5 1.5 1.5h1.5v-6.5c0-.827-.673-1.5-1.5-1.5z" fill="#212a41"/><path d="m39 29v3c0 2.209 1.791 4 4 4h7v-5c0-1.105-.895-2-2-2z" fill="#db8e11"/><path d="m50 36.5h-7c-2.481 0-4.5-2.019-4.5-4.5v-3c0-.276.224-.5.5-.5h9c1.378 0 2.5 1.122 2.5 2.5v5c0 .276-.224.5-.5.5zm-10.5-7v2.5c0 1.93 1.57 3.5 3.5 3.5h6.5v-4.5c0-.827-.673-1.5-1.5-1.5z" fill="#212a41"/><path d="m36 57.5c-.276 0-.5-.224-.5-.5v-6c0-.276.224-.5.5-.5s.5.224.5.5v6c0 .276-.224.5-.5.5z" fill="#6c696f"/><path d="m54 57.5c-.276 0-.5-.224-.5-.5v-6c0-.276.224-.5.5-.5s.5.224.5.5v6c0 .276-.224.5-.5.5z" fill="#302d33"/><path d="m49 45-4 7-4-7z" fill="#e0e0e0"/><path d="m45 52.5c-.179 0-.345-.096-.434-.252l-4-7c-.088-.155-.088-.345.001-.499.09-.154.255-.249.433-.249h8c.178 0 .343.095.433.249.089.154.09.344.001.499l-4 7c-.089.156-.255.252-.434.252zm-3.138-7 3.138 5.492 3.138-5.492z" fill="#212a41"/><path d="m45 59.5c-.276 0-.5-.224-.5-.5v-7c0-.276.224-.5.5-.5s.5.224.5.5v7c0 .276-.224.5-.5.5z" fill="#212a41"/><path d="m45 52.5c-.009 0-.018 0-.027-.001s-.001 0-.002 0h-.001-.001-.001-.001s0 0-.001 0c-.067-.005-.132-.023-.19-.053l-5.999-2.999c-.247-.124-.347-.424-.224-.671l2-4c.083-.165.249-.271.434-.276.179-.013.356.092.448.252l3.565 6.24 3.566-6.24c.091-.16.252-.262.448-.252.185.005.351.111.434.276l2 4c.124.247.023.547-.224.671l-5.999 2.999c-.059.03-.124.048-.19.053 0 0 0 0-.001 0 0 0 0 0-.001 0 0 0 0 0-.001 0 0 0 0 0-.001 0h-.001c-.001 0-.001 0-.002 0-.01.001-.019.001-.028.001zm3.971-6.441-2.717 4.755 4.076-2.038zm-9.3 2.717 4.076 2.038-2.717-4.755z" fill="#212a41"/></svg>