<svg id="Layer_3" enable-background="new 0 0 64 64" height="512" viewBox="0 0 64 64" width="512" xmlns="http://www.w3.org/2000/svg"><path d="m4 6h22v52h-22z" fill="#2d4d83"/><path d="m4 50.728c9.233-3.978 16-16.895 16-32.228 0-4.42-.568-8.636-1.589-12.5h-14.411z" fill="#4472b2"/><path d="m2 2h26v4h-26z" fill="#c18e59"/><path d="m26 42h12v4h-12z" fill="#8892a0"/><path d="m4 58h22v4h-22z" fill="#c18e59"/><g fill="#fff"><path d="m8 10h4v4h-4z"/><path d="m18 10h4v4h-4z"/><path d="m8 18h4v4h-4z"/><path d="m18 18h4v4h-4z"/><path d="m8 26h4v4h-4z"/><path d="m18 26h4v4h-4z"/><path d="m8 34h4v4h-4z"/><path d="m18 34h4v4h-4z"/><path d="m8 42h4v4h-4z"/><path d="m18 42h4v4h-4z"/><path d="m8 50h4v4h-4z"/><path d="m18 50h4v4h-4z"/></g><path d="m38 6h22v52h-22z" fill="#2d4d83"/><path d="m38 50.728c9.233-3.978 16-16.895 16-32.228 0-4.42-.568-8.636-1.589-12.5h-14.411z" fill="#4472b2"/><path d="m36 2h26v4h-26z" fill="#c18e59"/><path d="m38 58h22v4h-22z" fill="#c18e59"/><path d="m42 10h4v4h-4z" fill="#fff"/><path d="m52 10h4v4h-4z" fill="#fff"/><path d="m42 18h4v4h-4z" fill="#fff"/><path d="m52 18h4v4h-4z" fill="#fff"/><path d="m42 26h4v4h-4z" fill="#fff"/><path d="m52 26h4v4h-4z" fill="#fff"/><path d="m42 34h4v4h-4z" fill="#fff"/><path d="m52 34h4v4h-4z" fill="#fff"/><path d="m42 42h4v4h-4z" fill="#fff"/><path d="m52 42h4v4h-4z" fill="#fff"/><path d="m42 50h4v4h-4z" fill="#fff"/><path d="m52 50h4v4h-4z" fill="#fff"/></svg>