<svg height="512" viewBox="0 0 512 512" width="512" xmlns="http://www.w3.org/2000/svg"><path d="m458.307 304.082-60.307-16.082-22-10.667v-53.333h-80v53.333l-22 10.667-34 8.326-20.417 6.667a40 40 0 0 0 -27.583 38.023v82.984h-88v64h344a40 40 0 0 0 40-40v-105.269a40 40 0 0 0 -29.693-38.649z" fill="#fec9a3"/><path d="m376 246.318v-22.318h-80v22.318a87.469 87.469 0 0 0 80 0z" fill="#feb784"/><path d="m458.307 304.082-60.307-16.082-14-16-48 32-48-32-14 16-30 8h-4v152h88v40h120a40 40 0 0 0 40-40v-105.269a40 40 0 0 0 -29.693-38.649z" fill="#c7c7c5"/><path d="m293.657 340.928 42.343-36.928-48-32-14 16h.182z" fill="#e0e0de"/><path d="m378.343 340.928-42.343-36.928 48-32 14 16h-.182z" fill="#e0e0de"/><path d="m336 304-16 13.954v94.564l16 43.482 16-43.482v-94.564z" fill="#348fd9"/><path d="m408 120h8a24 24 0 0 1 24 24 24 24 0 0 1 -24 24h-8a0 0 0 0 1 0 0v-48a0 0 0 0 1 0 0z" fill="#feb784"/><path d="m264 120h-8a24.071 24.071 0 0 0 -24 24 24.07 24.07 0 0 0 24 24h8.48" fill="#feb784"/><path d="m408 112v56a72.006 72.006 0 0 1 -72 72 71.157 71.157 0 0 1 -9.85-.68h-.01a72.006 72.006 0 0 1 -62.14-71.32v-56a72.006 72.006 0 0 1 72-72c.89 0 1.79.02 2.67.05a72.005 72.005 0 0 1 69.33 71.95z" fill="#fec9a3"/><path d="m408 112v56a72.006 72.006 0 0 1 -72 72 71.157 71.157 0 0 1 -9.85-.68 88 88 0 0 0 49.85-79.32v-48a88.12 88.12 0 0 0 -37.33-71.95 72.005 72.005 0 0 1 69.33 71.95z" fill="#fec093"/><path d="m264 120v-32c0-26.51 17.909-48 40-48l-1.408 5.068c-7.842 28.232-21.055 53.888-38.592 74.932z" fill="#f27900"/><path d="m408 120v-55.015a25.754 25.754 0 0 0 -32-24.985v24s14.463 34.956 32 56z" fill="#f27900"/><path d="m376 40v24h-112a39.807 39.807 0 0 1 10.44-26.93c.41-.46.84-.91 1.28-1.35a39.908 39.908 0 0 1 28.28-11.72h33.37a54.641 54.641 0 0 1 38.63 16z" fill="#f98500"/><path d="m328.938 192h-16.938v-16h16.938a98.826 98.826 0 0 0 28.734-4.219l4.656 15.313a114.782 114.782 0 0 1 -33.39 4.906z" fill="#f7a468"/><path d="m309.83 24 31.784 40h20.44l-31.784-40z" fill="#f27900"/><path d="m323.44 64h-22.5l-26.5-26.93c.41-.46.84-.91 1.28-1.35a40.125 40.125 0 0 1 11.73-8.14z" fill="#f27900"/><circle cx="300" cy="132" fill="#7a432a" r="12"/><circle cx="372" cy="132" fill="#7a432a" r="12"/><path d="m274 288-32.668 8h2.668z" fill="none"/><path d="m240 296v.326l1.332-.326z" fill="#c7c7c5"/><path d="m458.307 304.082-60.307-16.082h-.182l-61.818 168-61.818-168h-.182l-30 8h-2.668l-1.332.326v127.674h-136v64h344a40 40 0 0 0 40-40v-105.269a40 40 0 0 0 -29.693-38.649z" fill="#3d4d63"/><path d="m240 360 32 8-16 32 80 56-58.401-158.712-3.599-9.288-21.975 5.86z" fill="#49648e"/><path d="m432 360-32 8 16 32-80 56 58.401-158.712 3.599-9.288 21.975 5.86z" fill="#49648e"/><path d="m328 448h16v40h-16z" fill="#334562"/><path d="m328 432h32v56h-32z" fill="#e0e0de"/><rect fill="#e0e0de" height="176" rx="16" width="224" x="24" y="280"/><path d="m241.853 283.48-172.52 172.52h162.667a16 16 0 0 0 16-16v-144a15.909 15.909 0 0 0 -6.147-12.52z" fill="#d6d6d4"/><path d="m56 328h32v32h-32z" fill="#348fd9"/><path d="m120 328h32v32h-32z" fill="#60d1e0"/><path d="m184 328h32v32h-32z" fill="#348fd9"/><path d="m56 392h32v32h-32z" fill="#60d1e0"/><path d="m120 392h32v32h-32z" fill="#348fd9"/><path d="m184 392h32v32h-32z" fill="#4db7e5"/><path d="m72 424h48a16 16 0 0 1 16 16v48a0 0 0 0 1 0 0h-64a16 16 0 0 1 -16-16v-32a16 16 0 0 1 16-16z" fill="#fec9a3"/><path d="m56 456v16a16 16 0 0 0 16 16h64v-16h-64a16 16 0 0 1 -16-16z" fill="#fec093"/><g fill="#c7c7c5"><path d="m48 256h16v48h-16z"/><path d="m80 256h16v48h-16z"/><path d="m112 256h16v48h-16z"/><path d="m144 256h16v48h-16z"/><path d="m176 256h16v48h-16z"/><path d="m208 256h16v48h-16z"/></g><path d="m328 488h-112a16 16 0 0 1 -16-16 16 16 0 0 1 16-16h32a16 16 0 0 1 -16-16 16 16 0 0 1 16-16h24a40.77 40.77 0 0 1 47.076 1.307l8.924 6.693z" fill="#fec9a3"/><path d="m264 464h-24a8 8 0 0 1 0-16h24a8 8 0 0 1 0 16z" fill="#f7a468"/><path d="m360 432h72v56h-72z" fill="#3d4d63"/><path d="m432 440h-72v-16h56v-32h16z" fill="#2e3e51"/></svg>