<svg id="Layer_3" enable-background="new 0 0 64 64" height="512" viewBox="0 0 64 64" width="512" xmlns="http://www.w3.org/2000/svg"><path d="m30 45v-13c0-1.105.895-2 2-2 1.105 0 2 .895 2 2v11l2-3h2l2 3h2l2 3h2l2 3v6l-3 7h-12l-4-7-1-5 3-2" fill="#efbe9a"/><path d="m62 28v-4c0-3.314-2.686-6-6-6h-6c-3.314 0-6 2.686-6 6v4" fill="#c66b60"/><path d="m59 28v-4c0-3.314-2.686-6-6-6h-3c-3.314 0-6 2.686-6 6v4" fill="#e47c6e"/><path d="m51 22 2-2 2 2 2.795-3.726c-.567-.178-1.17-.274-1.795-.274h-6c-.625 0-1.228.096-1.795.274z" fill="#db9b7c"/><path d="m57 10h3c1.105 0 2 .895 2 2 0 1.105-.895 2-2 2h-3" fill="#efbe9a"/><path d="m49 10h-3c-1.105 0-2 .895-2 2 0 1.105.895 2 2 2h3" fill="#db9b7c"/><path d="m58 6v7c0 2.761-2.239 5-5 5-2.761 0-5-2.239-5-5v-7" fill="#db9b7c"/><path d="m52 17.899c2.282-.463 4-2.48 4-4.899v-7h-8v7c0 2.419 1.718 4.436 4 4.899z" fill="#efbe9a"/><path d="m56 6c0 2.209-3.791 4-6 4h-4v-4c0-2.209 1.791-4 4-4h6c2.209 0 4 1.791 4 4v4c-2.209 0-4-1.791-4-4z" fill="#a66d43"/><path d="m56 6c0 .383.071.745.171 1.096.528-.774.829-1.657.829-2.596 0-.891-.276-1.731-.755-2.475-.083-.005-.161-.025-.245-.025h-6c-2.209 0-4 1.791-4 4v3.01c1.134.622 2.512.99 4 .99 2.209 0 6-1.791 6-4z" fill="#c18e59"/><path d="m41 28v-4c0-3.314-2.686-6-6-6h-6c-3.314 0-6 2.686-6 6v4" fill="#c66b60"/><path d="m38 28v-4c0-3.314-2.686-6-6-6h-3c-3.314 0-6 2.686-6 6v4" fill="#e47c6e"/><path d="m30 22 2-2 2 2 2.795-3.726c-.567-.178-1.17-.274-1.795-.274h-6c-.625 0-1.228.096-1.795.274z" fill="#db9b7c"/><path d="m36 10h3c1.105 0 2 .895 2 2 0 1.105-.895 2-2 2h-3" fill="#efbe9a"/><path d="m28 10h-3c-1.105 0-2 .895-2 2 0 1.105.895 2 2 2h3" fill="#db9b7c"/><path d="m37 6v7c0 2.761-2.239 5-5 5-2.761 0-5-2.239-5-5v-7" fill="#db9b7c"/><path d="m31 17.899c2.282-.463 4-2.48 4-4.899v-7h-8v7c0 2.419 1.718 4.436 4 4.899z" fill="#efbe9a"/><path d="m35 6c0 2.209-3.791 4-6 4h-4v-4c0-2.209 1.791-4 4-4h6c2.209 0 4 1.791 4 4v4c-2.209 0-4-1.791-4-4z" fill="#a66d43"/><path d="m35 6c0 .383.071.745.171 1.096.528-.774.829-1.657.829-2.596 0-.891-.276-1.731-.755-2.475-.083-.005-.161-.025-.245-.025h-6c-2.209 0-4 1.791-4 4v3.01c1.134.622 2.512.99 4 .99 2.209 0 6-1.791 6-4z" fill="#c18e59"/><path d="m20 28v-4c0-3.314-2.686-6-6-6h-6c-3.314 0-6 2.686-6 6v4" fill="#c66b60"/><path d="m17 28v-4c0-3.314-2.686-6-6-6h-3c-3.314 0-6 2.686-6 6v4" fill="#e47c6e"/><path d="m9 22 2-2 2 2 2.795-3.726c-.567-.178-1.17-.274-1.795-.274h-6c-.625 0-1.228.096-1.795.274z" fill="#db9b7c"/><path d="m15 10h3c1.105 0 2 .895 2 2 0 1.105-.895 2-2 2h-3" fill="#efbe9a"/><path d="m7 10h-3c-1.105 0-2 .895-2 2 0 1.105.895 2 2 2h3" fill="#db9b7c"/><path d="m16 6v7c0 2.761-2.239 5-5 5-2.761 0-5-2.239-5-5v-7" fill="#db9b7c"/><path d="m10 17.899c2.282-.463 4-2.48 4-4.899v-7h-8v7c0 2.419 1.718 4.436 4 4.899z" fill="#efbe9a"/><path d="m14 6c0 2.209-3.791 4-6 4h-4v-4c0-2.209 1.791-4 4-4h6c2.209 0 4 1.791 4 4v4c-2.209 0-4-1.791-4-4z" fill="#a66d43"/><path d="m14 6c0 .383.071.745.171 1.096.528-.774.829-1.657.829-2.596 0-.891-.276-1.731-.755-2.475-.083-.005-.161-.025-.245-.025h-6c-2.209 0-4 1.791-4 4v3.01c1.134.622 2.512.99 4 .99 2.209 0 6-1.791 6-4z" fill="#c18e59"/><path d="m18 11c-1.794 0-3.371-.95-4.253-2.374-1.537 1.498-4.135 2.374-5.747 2.374h-4c-.552 0-1-.448-1-1v-4c0-2.757 2.243-5 5-5h6c2.757 0 5 2.243 5 5v4c0 .552-.448 1-1 1zm-13-2h3c1.974 0 5-1.609 5-3 0-.552.448-1 1-1s1 .448 1 1c0 1.304.836 2.416 2 2.829v-2.829c0-1.654-1.346-3-3-3h-6c-1.654 0-3 1.346-3 3z"/><path d="m11 19c-3.309 0-6-2.691-6-6v-3h2v3c0 2.206 1.794 4 4 4s4-1.794 4-4v-4h2v4c0 3.309-2.691 6-6 6z"/><path d="m6 15h-2c-1.654 0-3-1.346-3-3s1.346-3 3-3h1v2h-1c-.551 0-1 .449-1 1s.449 1 1 1h2z"/><path d="m18 15h-2v-2h2c.551 0 1-.449 1-1s-.449-1-1-1h-1v-2h1c1.654 0 3 1.346 3 3s-1.346 3-3 3z"/><path d="m20 29h-18c-.552 0-1-.448-1-1v-4c0-3.86 3.14-7 7-7h6c3.86 0 7 3.14 7 7v4c0 .552-.448 1-1 1zm-17-2h16v-3c0-2.757-2.243-5-5-5h-6c-2.757 0-5 2.243-5 5z"/><path d="m5 23h2v5h-2z"/><path d="m15 23h2v5h-2z"/><path d="m13 23c-.264 0-.519-.104-.707-.293l-1.293-1.293-1.293 1.293c-.205.206-.488.31-.778.291-.289-.021-.555-.166-.729-.398l-3-4 1.6-1.2 2.309 3.078 1.185-1.185c.391-.391 1.023-.391 1.414 0l1.185 1.185 2.307-3.078 1.6 1.2-3 4c-.174.232-.44.377-.729.397-.024.002-.048.003-.071.003z"/><path d="m39 11c-1.794 0-3.371-.95-4.253-2.374-1.537 1.498-4.135 2.374-5.747 2.374h-4c-.552 0-1-.448-1-1v-4c0-2.757 2.243-5 5-5h6c2.757 0 5 2.243 5 5v4c0 .552-.448 1-1 1zm-13-2h3c1.974 0 5-1.609 5-3 0-.552.448-1 1-1s1 .448 1 1c0 1.304.836 2.416 2 2.829v-2.829c0-1.654-1.346-3-3-3h-6c-1.654 0-3 1.346-3 3z"/><path d="m32 19c-3.309 0-6-2.691-6-6v-3h2v3c0 2.206 1.794 4 4 4s4-1.794 4-4v-4h2v4c0 3.309-2.691 6-6 6z"/><path d="m27 15h-2c-1.654 0-3-1.346-3-3s1.346-3 3-3h1v2h-1c-.551 0-1 .449-1 1s.449 1 1 1h2z"/><path d="m39 15h-2v-2h2c.551 0 1-.449 1-1s-.449-1-1-1h-1v-2h1c1.654 0 3 1.346 3 3s-1.346 3-3 3z"/><path d="m41 29h-18c-.552 0-1-.448-1-1v-4c0-3.86 3.14-7 7-7h6c3.86 0 7 3.14 7 7v4c0 .552-.448 1-1 1zm-17-2h16v-3c0-2.757-2.243-5-5-5h-6c-2.757 0-5 2.243-5 5z"/><path d="m26 23h2v5h-2z"/><path d="m36 23h2v5h-2z"/><path d="m34 23c-.264 0-.519-.104-.707-.293l-1.293-1.293-1.293 1.293c-.204.206-.487.31-.778.291-.289-.021-.555-.166-.729-.397l-3-4 1.6-1.2 2.309 3.078 1.185-1.185c.391-.391 1.023-.391 1.414 0l1.185 1.185 2.307-3.079 1.6 1.2-3 4c-.174.232-.44.377-.729.397-.024.002-.048.003-.071.003z"/><path d="m60 11c-1.794 0-3.371-.95-4.253-2.374-1.537 1.498-4.135 2.374-5.747 2.374h-4c-.552 0-1-.448-1-1v-4c0-2.757 2.243-5 5-5h6c2.757 0 5 2.243 5 5v4c0 .552-.448 1-1 1zm-13-2h3c1.974 0 5-1.609 5-3 0-.552.448-1 1-1s1 .448 1 1c0 1.304.836 2.416 2 2.829v-2.829c0-1.654-1.346-3-3-3h-6c-1.654 0-3 1.346-3 3z"/><path d="m53 19c-3.309 0-6-2.691-6-6v-3h2v3c0 2.206 1.794 4 4 4s4-1.794 4-4v-4h2v4c0 3.309-2.691 6-6 6z"/><path d="m48 15h-2c-1.654 0-3-1.346-3-3s1.346-3 3-3h1v2h-1c-.551 0-1 .449-1 1s.449 1 1 1h2z"/><path d="m60 15h-2v-2h2c.551 0 1-.449 1-1s-.449-1-1-1h-1v-2h1c1.654 0 3 1.346 3 3s-1.346 3-3 3z"/><path d="m62 29h-18c-.552 0-1-.448-1-1v-4c0-3.86 3.14-7 7-7h6c3.86 0 7 3.14 7 7v4c0 .552-.448 1-1 1zm-17-2h16v-3c0-2.757-2.243-5-5-5h-6c-2.757 0-5 2.243-5 5z"/><path d="m47 23h2v5h-2z"/><path d="m57 23h2v5h-2z"/><path d="m55 23c-.264 0-.519-.104-.707-.293l-1.293-1.293-1.293 1.293c-.204.206-.487.31-.778.291-.289-.021-.555-.166-.729-.397l-3-4 1.6-1.2 2.309 3.078 1.185-1.185c.391-.391 1.023-.391 1.414 0l1.185 1.185 2.307-3.079 1.6 1.2-3 4c-.174.232-.44.377-.729.397-.024.002-.048.003-.071.003z"/><path d="m45 63h-12c-.359 0-.69-.192-.868-.504l-4-7c-.053-.093-.091-.195-.112-.3l-1-5c-.08-.397.088-.804.426-1.028l2.364-1.576-.758-2.275c-.035-.103-.052-.21-.052-.317v-13c0-1.654 1.346-3 3-3s3 1.346 3 3v7.697l.168-.252c.186-.278.498-.445.832-.445h2c.334 0 .646.167.832.445l1.703 2.555h1.465c.334 0 .646.167.832.445l1.703 2.555h1.465c.334 0 .646.167.832.445l2 3c.109.164.168.358.168.555v6c0 .135-.027.27-.081.394l-3 7c-.157.368-.519.606-.919.606zm-11.42-2h10.761l2.659-6.205v-5.492l-1.535-2.303h-1.465c-.334 0-.646-.167-.832-.445l-1.703-2.555h-1.465c-.334 0-.646-.167-.832-.445l-1.703-2.555h-.93l-1.703 2.555c-.245.367-.702.532-1.122.402-.421-.127-.71-.517-.71-.957v-11c0-.551-.449-1-1-1s-1 .449-1 1v12.838l1.949 5.846-1.897.633-.586-1.758-1.354.902.837 4.184z"/></svg>