<svg id="Layer_5" enable-background="new 0 0 64 64" height="512" viewBox="0 0 64 64" width="512" xmlns="http://www.w3.org/2000/svg"><path d="m60.59 20.59-17.18-17.18c-.9-.9-2.13-1.41-3.41-1.41s-2.51.51-3.41 1.41l-32.59 32.59 24 24 32.59-32.59c.9-.9 1.41-2.13 1.41-3.41s-.51-2.51-1.41-3.41z" fill="#aab2bd"/><path d="m28 60-.59.59c-.9.9-2.13 1.41-3.41 1.41s-2.51-.51-3.41-1.41l-17.18-17.18c-.9-.9-1.41-2.13-1.41-3.41s.51-2.51 1.41-3.41l.59-.59z" fill="#838f9b"/><path d="m57 17-1.29 1.29c-.46.46-1.07.71-1.71.71s-1.25-.25-1.71-.71c-1.51-1.51-5.07-5.07-6.58-6.58-.46-.46-.71-1.07-.71-1.71s.25-1.25.71-1.71l1.29-1.29z" fill="#fcd770"/><path d="m13.408 18.772h38.184v25.456h-38.184z" fill="#69d6f4" transform="matrix(.707 -.707 .707 .707 -12.755 32.207)"/><path d="m26.879 40.879h4.243v4.243h-4.243z" fill="#ff826e" transform="matrix(.707 -.707 .707 .707 -21.912 33.101)"/><path d="m20.879 34.879h4.243v4.243h-4.243z" fill="#fcd770" transform="matrix(.707 -.707 .707 .707 -19.426 27.101)"/><path d="m32.879 34.879h4.243v4.243h-4.243z" fill="#fcd770" transform="matrix(.707 -.707 .707 .707 -15.912 35.586)"/><path d="m26.879 28.879h4.243v4.243h-4.243z" fill="#ff826e" transform="matrix(.707 -.707 .707 .707 -13.426 29.586)"/><path d="m30 16c0 .59-.04 1.16-.11 1.73-.85 6.92-6.75 12.27-13.89 12.27-1.78 0-3.48-.33-5.05-.95-5.24-2.02-8.95-7.1-8.95-13.05 0-7.73 6.27-14 14-14 5.95 0 11.03 3.71 13.05 8.95.62 1.57.95 3.27.95 5.05z" fill="#ffeaa7"/><path d="m24 13.97c0 1.95-.72 3.84-2.01 5.29l-5.99 6.74-5.99-6.74c-1.29-1.45-2.01-3.34-2.01-5.29 0-4.4 3.57-7.97 7.97-7.97h.06c2.2 0 4.19.89 5.63 2.34 1.45 1.44 2.34 3.43 2.34 5.63z" fill="#ff826e"/><circle cx="16" cy="14" fill="#e6e9ed" r="4"/><path d="m61.293 19.879-17.172-17.172c-1.1-1.101-2.564-1.707-4.121-1.707s-3.021.606-4.121 1.707l-6.515 6.515c-2.481-4.871-7.533-8.222-13.364-8.222-8.271 0-15 6.729-15 15 0 5.831 3.351 10.883 8.222 13.364l-6.515 6.515c-1.101 1.1-1.707 2.564-1.707 4.121s.606 3.021 1.707 4.121l17.172 17.172c1.1 1.101 2.564 1.707 4.121 1.707 1.534 0 3.036-.622 4.121-1.707l33.172-33.172c1.101-1.1 1.707-2.564 1.707-4.121s-.606-3.021-1.707-4.121zm-14.879-10.879.586-.586 8.586 8.586-.586.586c-.53.531-1.47.529-1.998.002l-6.59-6.59c-.266-.266-.412-.62-.412-.998 0-.372.151-.737.414-1zm-9.414 1.414 16.586 16.586-25.586 25.586-16.586-16.586 5.022-5.022c7.922-.229 14.312-6.62 14.542-14.542zm-34 5.586c0-7.168 5.832-13 13-13s13 5.832 13 13-5.832 13-13 13-13-5.832-13-13zm18.293 43.879-17.172-17.172c-.723-.723-1.121-1.685-1.121-2.707 0-.964.365-1.867 1.012-2.574l22.562 22.562c-.701.638-1.624 1.012-2.574 1.012-1.022 0-1.984-.398-2.707-1.121zm38.586-33.172-31.879 31.879-22.586-22.586 5.798-5.798c.823.278 1.679.481 2.559.613l-5.185 5.185 19.414 19.414 28.414-28.414-19.414-19.414-6.184 6.184c-.132-.88-.335-1.735-.613-2.559l7.091-7.091c1.446-1.446 3.968-1.446 5.414 0l2.878 2.88-.586.586c-.645.644-1 1.502-1 2.414s.354 1.769.998 2.412l6.59 6.59c.643.644 1.5.998 2.412.998s1.77-.355 2.414-1l.586-.586 2.879 2.879c.723.723 1.121 1.685 1.121 2.707s-.398 1.984-1.121 2.707z"/><path d="m30.586 37 4.414 4.414 4.414-4.414-4.414-4.414zm4.414 1.586-1.586-1.586 1.586-1.586 1.586 1.586z"/><path d="m24.586 43 4.414 4.414 4.414-4.414-4.414-4.414zm4.414 1.586-1.586-1.586 1.586-1.586 1.586 1.586z"/><path d="m29 35.414 4.414-4.414-4.414-4.414-4.414 4.414zm1.586-4.414-1.586 1.586-1.586-1.586 1.586-1.586z"/><path d="m23 32.586-4.414 4.414 4.414 4.414 4.414-4.414zm-1.586 4.414 1.586-1.586 1.586 1.586-1.586 1.586z"/><path d="m22.734 19.929c1.461-1.644 2.266-3.76 2.266-5.959 0-4.946-4.024-8.97-9.03-8.97-4.946 0-8.97 4.024-8.97 8.97 0 2.199.805 4.315 2.266 5.959l6.734 7.576zm-13.734-5.959c0-3.844 3.126-6.97 7.03-6.97 3.844 0 6.97 3.126 6.97 6.97 0 1.709-.625 3.354-1.761 4.63l-5.239 5.895-5.239-5.895c-1.136-1.277-1.761-2.921-1.761-4.63z"/><path d="m21 14c0-2.757-2.243-5-5-5s-5 2.243-5 5 2.243 5 5 5 5-2.243 5-5zm-8 0c0-1.654 1.346-3 3-3s3 1.346 3 3-1.346 3-3 3-3-1.346-3-3z"/><path d="m41 12.101h2v19.799h-2z" transform="matrix(.707 -.707 .707 .707 -3.255 36.142)"/><path d="m38 15.101h2v19.799h-2z" transform="matrix(.707 -.707 .707 .707 -6.255 34.9)"/><path d="m36.5 21.722h2v15.556h-2z" transform="matrix(.707 -.707 .707 .707 -9.876 35.157)"/></svg>